<mxfile host="Electron" modified="2024-04-21T06:24:48.130Z" agent="Mozilla/5.0 (Macintosh; Intel Mac OS X 10_15_7) AppleWebKit/537.36 (KHTML, like Gecko) draw.io/24.1.0 Chrome/120.0.6099.109 Electron/28.1.0 Safari/537.36" etag="kVePHmGxth1306paA2MM" version="24.1.0" type="device">
  <diagram id="R2lEEEUBdFMjLlhIrx00" name="Page-1">
    <mxGraphModel dx="2302" dy="1351" grid="1" gridSize="10" guides="1" tooltips="1" connect="1" arrows="1" fold="1" page="1" pageScale="1" pageWidth="1920" pageHeight="1200" math="0" shadow="0" extFonts="Permanent Marker^https://fonts.googleapis.com/css?family=Permanent+Marker">
      <root>
        <mxCell id="0" />
        <mxCell id="1" parent="0" />
        <mxCell id="EbB1QgQNDdHdvBnAkDd7-249" value="" style="rounded=0;whiteSpace=wrap;html=1;fillColor=none;imageWidth=24;" parent="1" vertex="1">
          <mxGeometry x="1535" y="695.63" width="190" height="114" as="geometry" />
        </mxCell>
        <mxCell id="EbB1QgQNDdHdvBnAkDd7-247" value="" style="rounded=0;whiteSpace=wrap;html=1;fillColor=none;imageWidth=24;" parent="1" vertex="1">
          <mxGeometry x="1347" y="529" width="185" height="114" as="geometry" />
        </mxCell>
        <mxCell id="EbB1QgQNDdHdvBnAkDd7-246" value="" style="rounded=0;whiteSpace=wrap;html=1;fillColor=none;imageWidth=24;" parent="1" vertex="1">
          <mxGeometry x="967" y="526" width="185" height="114" as="geometry" />
        </mxCell>
        <mxCell id="EbB1QgQNDdHdvBnAkDd7-248" value="" style="rounded=0;whiteSpace=wrap;html=1;fillColor=none;imageWidth=24;" parent="1" vertex="1">
          <mxGeometry x="1158" y="693.63" width="186" height="114" as="geometry" />
        </mxCell>
        <mxCell id="EbB1QgQNDdHdvBnAkDd7-1" value="lines" style="shape=table;startSize=30;container=1;collapsible=1;childLayout=tableLayout;fixedRows=1;rowLines=0;fontStyle=1;align=center;resizeLast=1;html=1;" parent="1" vertex="1">
          <mxGeometry x="180" y="429" width="180" height="295" as="geometry" />
        </mxCell>
        <mxCell id="EbB1QgQNDdHdvBnAkDd7-2" value="" style="shape=tableRow;horizontal=0;startSize=0;swimlaneHead=0;swimlaneBody=0;fillColor=none;collapsible=0;dropTarget=0;points=[[0,0.5],[1,0.5]];portConstraint=eastwest;top=0;left=0;right=0;bottom=1;" parent="EbB1QgQNDdHdvBnAkDd7-1" vertex="1">
          <mxGeometry y="30" width="180" height="30" as="geometry" />
        </mxCell>
        <mxCell id="EbB1QgQNDdHdvBnAkDd7-3" value="PK" style="shape=partialRectangle;connectable=0;fillColor=none;top=0;left=0;bottom=0;right=0;fontStyle=1;overflow=hidden;whiteSpace=wrap;html=1;" parent="EbB1QgQNDdHdvBnAkDd7-2" vertex="1">
          <mxGeometry width="30" height="30" as="geometry">
            <mxRectangle width="30" height="30" as="alternateBounds" />
          </mxGeometry>
        </mxCell>
        <mxCell id="EbB1QgQNDdHdvBnAkDd7-4" value="line_id" style="shape=partialRectangle;connectable=0;fillColor=none;top=0;left=0;bottom=0;right=0;align=left;spacingLeft=6;fontStyle=5;overflow=hidden;whiteSpace=wrap;html=1;" parent="EbB1QgQNDdHdvBnAkDd7-2" vertex="1">
          <mxGeometry x="30" width="150" height="30" as="geometry">
            <mxRectangle width="150" height="30" as="alternateBounds" />
          </mxGeometry>
        </mxCell>
        <mxCell id="EbB1QgQNDdHdvBnAkDd7-5" value="" style="shape=tableRow;horizontal=0;startSize=0;swimlaneHead=0;swimlaneBody=0;fillColor=none;collapsible=0;dropTarget=0;points=[[0,0.5],[1,0.5]];portConstraint=eastwest;top=0;left=0;right=0;bottom=0;" parent="EbB1QgQNDdHdvBnAkDd7-1" vertex="1">
          <mxGeometry y="60" width="180" height="25" as="geometry" />
        </mxCell>
        <mxCell id="EbB1QgQNDdHdvBnAkDd7-6" value="" style="shape=partialRectangle;connectable=0;fillColor=none;top=0;left=0;bottom=0;right=0;editable=1;overflow=hidden;whiteSpace=wrap;html=1;" parent="EbB1QgQNDdHdvBnAkDd7-5" vertex="1">
          <mxGeometry width="30" height="25" as="geometry">
            <mxRectangle width="30" height="25" as="alternateBounds" />
          </mxGeometry>
        </mxCell>
        <mxCell id="EbB1QgQNDdHdvBnAkDd7-7" value="start_time" style="shape=partialRectangle;connectable=0;fillColor=none;top=0;left=0;bottom=0;right=0;align=left;spacingLeft=6;overflow=hidden;whiteSpace=wrap;html=1;" parent="EbB1QgQNDdHdvBnAkDd7-5" vertex="1">
          <mxGeometry x="30" width="150" height="25" as="geometry">
            <mxRectangle width="150" height="25" as="alternateBounds" />
          </mxGeometry>
        </mxCell>
        <mxCell id="EbB1QgQNDdHdvBnAkDd7-8" value="" style="shape=tableRow;horizontal=0;startSize=0;swimlaneHead=0;swimlaneBody=0;fillColor=none;collapsible=0;dropTarget=0;points=[[0,0.5],[1,0.5]];portConstraint=eastwest;top=0;left=0;right=0;bottom=0;" parent="EbB1QgQNDdHdvBnAkDd7-1" vertex="1">
          <mxGeometry y="85" width="180" height="30" as="geometry" />
        </mxCell>
        <mxCell id="EbB1QgQNDdHdvBnAkDd7-9" value="" style="shape=partialRectangle;connectable=0;fillColor=none;top=0;left=0;bottom=0;right=0;editable=1;overflow=hidden;whiteSpace=wrap;html=1;" parent="EbB1QgQNDdHdvBnAkDd7-8" vertex="1">
          <mxGeometry width="30" height="30" as="geometry">
            <mxRectangle width="30" height="30" as="alternateBounds" />
          </mxGeometry>
        </mxCell>
        <mxCell id="EbB1QgQNDdHdvBnAkDd7-10" value="end_time" style="shape=partialRectangle;connectable=0;fillColor=none;top=0;left=0;bottom=0;right=0;align=left;spacingLeft=6;overflow=hidden;whiteSpace=wrap;html=1;" parent="EbB1QgQNDdHdvBnAkDd7-8" vertex="1">
          <mxGeometry x="30" width="150" height="30" as="geometry">
            <mxRectangle width="150" height="30" as="alternateBounds" />
          </mxGeometry>
        </mxCell>
        <mxCell id="EbB1QgQNDdHdvBnAkDd7-11" value="" style="shape=tableRow;horizontal=0;startSize=0;swimlaneHead=0;swimlaneBody=0;fillColor=none;collapsible=0;dropTarget=0;points=[[0,0.5],[1,0.5]];portConstraint=eastwest;top=0;left=0;right=0;bottom=0;" parent="EbB1QgQNDdHdvBnAkDd7-1" vertex="1">
          <mxGeometry y="115" width="180" height="30" as="geometry" />
        </mxCell>
        <mxCell id="EbB1QgQNDdHdvBnAkDd7-12" value="" style="shape=partialRectangle;connectable=0;fillColor=none;top=0;left=0;bottom=0;right=0;editable=1;overflow=hidden;whiteSpace=wrap;html=1;" parent="EbB1QgQNDdHdvBnAkDd7-11" vertex="1">
          <mxGeometry width="30" height="30" as="geometry">
            <mxRectangle width="30" height="30" as="alternateBounds" />
          </mxGeometry>
        </mxCell>
        <mxCell id="EbB1QgQNDdHdvBnAkDd7-13" value="intro" style="shape=partialRectangle;connectable=0;fillColor=none;top=0;left=0;bottom=0;right=0;align=left;spacingLeft=6;overflow=hidden;whiteSpace=wrap;html=1;" parent="EbB1QgQNDdHdvBnAkDd7-11" vertex="1">
          <mxGeometry x="30" width="150" height="30" as="geometry">
            <mxRectangle width="150" height="30" as="alternateBounds" />
          </mxGeometry>
        </mxCell>
        <mxCell id="EbB1QgQNDdHdvBnAkDd7-19" value="" style="shape=tableRow;horizontal=0;startSize=0;swimlaneHead=0;swimlaneBody=0;fillColor=none;collapsible=0;dropTarget=0;points=[[0,0.5],[1,0.5]];portConstraint=eastwest;top=0;left=0;right=0;bottom=0;" parent="EbB1QgQNDdHdvBnAkDd7-1" vertex="1">
          <mxGeometry y="145" width="180" height="30" as="geometry" />
        </mxCell>
        <mxCell id="EbB1QgQNDdHdvBnAkDd7-20" value="" style="shape=partialRectangle;connectable=0;fillColor=none;top=0;left=0;bottom=0;right=0;editable=1;overflow=hidden;whiteSpace=wrap;html=1;" parent="EbB1QgQNDdHdvBnAkDd7-19" vertex="1">
          <mxGeometry width="30" height="30" as="geometry">
            <mxRectangle width="30" height="30" as="alternateBounds" />
          </mxGeometry>
        </mxCell>
        <mxCell id="EbB1QgQNDdHdvBnAkDd7-21" value="mileage" style="shape=partialRectangle;connectable=0;fillColor=none;top=0;left=0;bottom=0;right=0;align=left;spacingLeft=6;overflow=hidden;whiteSpace=wrap;html=1;" parent="EbB1QgQNDdHdvBnAkDd7-19" vertex="1">
          <mxGeometry x="30" width="150" height="30" as="geometry">
            <mxRectangle width="150" height="30" as="alternateBounds" />
          </mxGeometry>
        </mxCell>
        <mxCell id="EbB1QgQNDdHdvBnAkDd7-16" value="" style="shape=tableRow;horizontal=0;startSize=0;swimlaneHead=0;swimlaneBody=0;fillColor=none;collapsible=0;dropTarget=0;points=[[0,0.5],[1,0.5]];portConstraint=eastwest;top=0;left=0;right=0;bottom=0;" parent="EbB1QgQNDdHdvBnAkDd7-1" vertex="1">
          <mxGeometry y="175" width="180" height="30" as="geometry" />
        </mxCell>
        <mxCell id="EbB1QgQNDdHdvBnAkDd7-17" value="" style="shape=partialRectangle;connectable=0;fillColor=none;top=0;left=0;bottom=0;right=0;editable=1;overflow=hidden;whiteSpace=wrap;html=1;" parent="EbB1QgQNDdHdvBnAkDd7-16" vertex="1">
          <mxGeometry width="30" height="30" as="geometry">
            <mxRectangle width="30" height="30" as="alternateBounds" />
          </mxGeometry>
        </mxCell>
        <mxCell id="EbB1QgQNDdHdvBnAkDd7-18" value="color" style="shape=partialRectangle;connectable=0;fillColor=none;top=0;left=0;bottom=0;right=0;align=left;spacingLeft=6;overflow=hidden;whiteSpace=wrap;html=1;" parent="EbB1QgQNDdHdvBnAkDd7-16" vertex="1">
          <mxGeometry x="30" width="150" height="30" as="geometry">
            <mxRectangle width="150" height="30" as="alternateBounds" />
          </mxGeometry>
        </mxCell>
        <mxCell id="EbB1QgQNDdHdvBnAkDd7-22" value="" style="shape=tableRow;horizontal=0;startSize=0;swimlaneHead=0;swimlaneBody=0;fillColor=none;collapsible=0;dropTarget=0;points=[[0,0.5],[1,0.5]];portConstraint=eastwest;top=0;left=0;right=0;bottom=0;" parent="EbB1QgQNDdHdvBnAkDd7-1" vertex="1">
          <mxGeometry y="205" width="180" height="30" as="geometry" />
        </mxCell>
        <mxCell id="EbB1QgQNDdHdvBnAkDd7-23" value="" style="shape=partialRectangle;connectable=0;fillColor=none;top=0;left=0;bottom=0;right=0;editable=1;overflow=hidden;whiteSpace=wrap;html=1;" parent="EbB1QgQNDdHdvBnAkDd7-22" vertex="1">
          <mxGeometry width="30" height="30" as="geometry">
            <mxRectangle width="30" height="30" as="alternateBounds" />
          </mxGeometry>
        </mxCell>
        <mxCell id="EbB1QgQNDdHdvBnAkDd7-24" value="first_opening" style="shape=partialRectangle;connectable=0;fillColor=none;top=0;left=0;bottom=0;right=0;align=left;spacingLeft=6;overflow=hidden;whiteSpace=wrap;html=1;" parent="EbB1QgQNDdHdvBnAkDd7-22" vertex="1">
          <mxGeometry x="30" width="150" height="30" as="geometry">
            <mxRectangle width="150" height="30" as="alternateBounds" />
          </mxGeometry>
        </mxCell>
        <mxCell id="EbB1QgQNDdHdvBnAkDd7-25" value="" style="shape=tableRow;horizontal=0;startSize=0;swimlaneHead=0;swimlaneBody=0;fillColor=none;collapsible=0;dropTarget=0;points=[[0,0.5],[1,0.5]];portConstraint=eastwest;top=0;left=0;right=0;bottom=0;" parent="EbB1QgQNDdHdvBnAkDd7-1" vertex="1">
          <mxGeometry y="235" width="180" height="30" as="geometry" />
        </mxCell>
        <mxCell id="EbB1QgQNDdHdvBnAkDd7-26" value="" style="shape=partialRectangle;connectable=0;fillColor=none;top=0;left=0;bottom=0;right=0;editable=1;overflow=hidden;whiteSpace=wrap;html=1;" parent="EbB1QgQNDdHdvBnAkDd7-25" vertex="1">
          <mxGeometry width="30" height="30" as="geometry">
            <mxRectangle width="30" height="30" as="alternateBounds" />
          </mxGeometry>
        </mxCell>
        <mxCell id="EbB1QgQNDdHdvBnAkDd7-27" value="url" style="shape=partialRectangle;connectable=0;fillColor=none;top=0;left=0;bottom=0;right=0;align=left;spacingLeft=6;overflow=hidden;whiteSpace=wrap;html=1;" parent="EbB1QgQNDdHdvBnAkDd7-25" vertex="1">
          <mxGeometry x="30" width="150" height="30" as="geometry">
            <mxRectangle width="150" height="30" as="alternateBounds" />
          </mxGeometry>
        </mxCell>
        <mxCell id="EbB1QgQNDdHdvBnAkDd7-28" value="" style="shape=tableRow;horizontal=0;startSize=0;swimlaneHead=0;swimlaneBody=0;fillColor=none;collapsible=0;dropTarget=0;points=[[0,0.5],[1,0.5]];portConstraint=eastwest;top=0;left=0;right=0;bottom=0;" parent="EbB1QgQNDdHdvBnAkDd7-1" vertex="1">
          <mxGeometry y="265" width="180" height="30" as="geometry" />
        </mxCell>
        <mxCell id="EbB1QgQNDdHdvBnAkDd7-29" value="" style="shape=partialRectangle;connectable=0;fillColor=none;top=0;left=0;bottom=0;right=0;editable=1;overflow=hidden;whiteSpace=wrap;html=1;" parent="EbB1QgQNDdHdvBnAkDd7-28" vertex="1">
          <mxGeometry width="30" height="30" as="geometry">
            <mxRectangle width="30" height="30" as="alternateBounds" />
          </mxGeometry>
        </mxCell>
        <mxCell id="EbB1QgQNDdHdvBnAkDd7-30" value="name" style="shape=partialRectangle;connectable=0;fillColor=none;top=0;left=0;bottom=0;right=0;align=left;spacingLeft=6;overflow=hidden;whiteSpace=wrap;html=1;" parent="EbB1QgQNDdHdvBnAkDd7-28" vertex="1">
          <mxGeometry x="30" width="150" height="30" as="geometry">
            <mxRectangle width="150" height="30" as="alternateBounds" />
          </mxGeometry>
        </mxCell>
        <mxCell id="EbB1QgQNDdHdvBnAkDd7-63" value="stations" style="shape=table;startSize=30;container=1;collapsible=1;childLayout=tableLayout;fixedRows=1;rowLines=0;fontStyle=1;align=center;resizeLast=1;html=1;" parent="1" vertex="1">
          <mxGeometry x="590" y="480" width="180" height="180" as="geometry" />
        </mxCell>
        <mxCell id="EbB1QgQNDdHdvBnAkDd7-64" value="" style="shape=tableRow;horizontal=0;startSize=0;swimlaneHead=0;swimlaneBody=0;fillColor=none;collapsible=0;dropTarget=0;points=[[0,0.5],[1,0.5]];portConstraint=eastwest;top=0;left=0;right=0;bottom=1;" parent="EbB1QgQNDdHdvBnAkDd7-63" vertex="1">
          <mxGeometry y="30" width="180" height="30" as="geometry" />
        </mxCell>
        <mxCell id="EbB1QgQNDdHdvBnAkDd7-65" value="PK" style="shape=partialRectangle;connectable=0;fillColor=none;top=0;left=0;bottom=0;right=0;fontStyle=1;overflow=hidden;whiteSpace=wrap;html=1;" parent="EbB1QgQNDdHdvBnAkDd7-64" vertex="1">
          <mxGeometry width="30" height="30" as="geometry">
            <mxRectangle width="30" height="30" as="alternateBounds" />
          </mxGeometry>
        </mxCell>
        <mxCell id="EbB1QgQNDdHdvBnAkDd7-66" value="station_id" style="shape=partialRectangle;connectable=0;fillColor=none;top=0;left=0;bottom=0;right=0;align=left;spacingLeft=6;fontStyle=5;overflow=hidden;whiteSpace=wrap;html=1;" parent="EbB1QgQNDdHdvBnAkDd7-64" vertex="1">
          <mxGeometry x="30" width="150" height="30" as="geometry">
            <mxRectangle width="150" height="30" as="alternateBounds" />
          </mxGeometry>
        </mxCell>
        <mxCell id="EbB1QgQNDdHdvBnAkDd7-67" value="" style="shape=tableRow;horizontal=0;startSize=0;swimlaneHead=0;swimlaneBody=0;fillColor=none;collapsible=0;dropTarget=0;points=[[0,0.5],[1,0.5]];portConstraint=eastwest;top=0;left=0;right=0;bottom=0;" parent="EbB1QgQNDdHdvBnAkDd7-63" vertex="1">
          <mxGeometry y="60" width="180" height="30" as="geometry" />
        </mxCell>
        <mxCell id="EbB1QgQNDdHdvBnAkDd7-68" value="" style="shape=partialRectangle;connectable=0;fillColor=none;top=0;left=0;bottom=0;right=0;editable=1;overflow=hidden;whiteSpace=wrap;html=1;" parent="EbB1QgQNDdHdvBnAkDd7-67" vertex="1">
          <mxGeometry width="30" height="30" as="geometry">
            <mxRectangle width="30" height="30" as="alternateBounds" />
          </mxGeometry>
        </mxCell>
        <mxCell id="EbB1QgQNDdHdvBnAkDd7-69" value="english_name" style="shape=partialRectangle;connectable=0;fillColor=none;top=0;left=0;bottom=0;right=0;align=left;spacingLeft=6;overflow=hidden;whiteSpace=wrap;html=1;" parent="EbB1QgQNDdHdvBnAkDd7-67" vertex="1">
          <mxGeometry x="30" width="150" height="30" as="geometry">
            <mxRectangle width="150" height="30" as="alternateBounds" />
          </mxGeometry>
        </mxCell>
        <mxCell id="EbB1QgQNDdHdvBnAkDd7-70" value="" style="shape=tableRow;horizontal=0;startSize=0;swimlaneHead=0;swimlaneBody=0;fillColor=none;collapsible=0;dropTarget=0;points=[[0,0.5],[1,0.5]];portConstraint=eastwest;top=0;left=0;right=0;bottom=0;" parent="EbB1QgQNDdHdvBnAkDd7-63" vertex="1">
          <mxGeometry y="90" width="180" height="30" as="geometry" />
        </mxCell>
        <mxCell id="EbB1QgQNDdHdvBnAkDd7-71" value="" style="shape=partialRectangle;connectable=0;fillColor=none;top=0;left=0;bottom=0;right=0;editable=1;overflow=hidden;whiteSpace=wrap;html=1;" parent="EbB1QgQNDdHdvBnAkDd7-70" vertex="1">
          <mxGeometry width="30" height="30" as="geometry">
            <mxRectangle width="30" height="30" as="alternateBounds" />
          </mxGeometry>
        </mxCell>
        <mxCell id="EbB1QgQNDdHdvBnAkDd7-72" value="chinese_name" style="shape=partialRectangle;connectable=0;fillColor=none;top=0;left=0;bottom=0;right=0;align=left;spacingLeft=6;overflow=hidden;whiteSpace=wrap;html=1;" parent="EbB1QgQNDdHdvBnAkDd7-70" vertex="1">
          <mxGeometry x="30" width="150" height="30" as="geometry">
            <mxRectangle width="150" height="30" as="alternateBounds" />
          </mxGeometry>
        </mxCell>
        <mxCell id="EbB1QgQNDdHdvBnAkDd7-73" value="" style="shape=tableRow;horizontal=0;startSize=0;swimlaneHead=0;swimlaneBody=0;fillColor=none;collapsible=0;dropTarget=0;points=[[0,0.5],[1,0.5]];portConstraint=eastwest;top=0;left=0;right=0;bottom=0;" parent="EbB1QgQNDdHdvBnAkDd7-63" vertex="1">
          <mxGeometry y="120" width="180" height="30" as="geometry" />
        </mxCell>
        <mxCell id="EbB1QgQNDdHdvBnAkDd7-74" value="" style="shape=partialRectangle;connectable=0;fillColor=none;top=0;left=0;bottom=0;right=0;editable=1;overflow=hidden;whiteSpace=wrap;html=1;" parent="EbB1QgQNDdHdvBnAkDd7-73" vertex="1">
          <mxGeometry width="30" height="30" as="geometry">
            <mxRectangle width="30" height="30" as="alternateBounds" />
          </mxGeometry>
        </mxCell>
        <mxCell id="EbB1QgQNDdHdvBnAkDd7-75" value="intro" style="shape=partialRectangle;connectable=0;fillColor=none;top=0;left=0;bottom=0;right=0;align=left;spacingLeft=6;overflow=hidden;whiteSpace=wrap;html=1;" parent="EbB1QgQNDdHdvBnAkDd7-73" vertex="1">
          <mxGeometry x="30" width="150" height="30" as="geometry">
            <mxRectangle width="150" height="30" as="alternateBounds" />
          </mxGeometry>
        </mxCell>
        <mxCell id="EbB1QgQNDdHdvBnAkDd7-76" value="" style="shape=tableRow;horizontal=0;startSize=0;swimlaneHead=0;swimlaneBody=0;fillColor=none;collapsible=0;dropTarget=0;points=[[0,0.5],[1,0.5]];portConstraint=eastwest;top=0;left=0;right=0;bottom=0;" parent="EbB1QgQNDdHdvBnAkDd7-63" vertex="1">
          <mxGeometry y="150" width="180" height="30" as="geometry" />
        </mxCell>
        <mxCell id="EbB1QgQNDdHdvBnAkDd7-77" value="" style="shape=partialRectangle;connectable=0;fillColor=none;top=0;left=0;bottom=0;right=0;editable=1;overflow=hidden;whiteSpace=wrap;html=1;" parent="EbB1QgQNDdHdvBnAkDd7-76" vertex="1">
          <mxGeometry width="30" height="30" as="geometry">
            <mxRectangle width="30" height="30" as="alternateBounds" />
          </mxGeometry>
        </mxCell>
        <mxCell id="EbB1QgQNDdHdvBnAkDd7-78" value="district" style="shape=partialRectangle;connectable=0;fillColor=none;top=0;left=0;bottom=0;right=0;align=left;spacingLeft=6;overflow=hidden;whiteSpace=wrap;html=1;" parent="EbB1QgQNDdHdvBnAkDd7-76" vertex="1">
          <mxGeometry x="30" width="150" height="30" as="geometry">
            <mxRectangle width="150" height="30" as="alternateBounds" />
          </mxGeometry>
        </mxCell>
        <mxCell id="EbB1QgQNDdHdvBnAkDd7-79" value="a station of" style="shape=rhombus;perimeter=rhombusPerimeter;whiteSpace=wrap;html=1;align=center;" parent="1" vertex="1">
          <mxGeometry x="410" y="555" width="120" height="60" as="geometry" />
        </mxCell>
        <mxCell id="EbB1QgQNDdHdvBnAkDd7-84" value="" style="endArrow=none;html=1;rounded=0;entryX=0;entryY=0.5;entryDx=0;entryDy=0;" parent="1" target="EbB1QgQNDdHdvBnAkDd7-70" edge="1">
          <mxGeometry relative="1" as="geometry">
            <mxPoint x="530" y="585" as="sourcePoint" />
            <mxPoint x="690" y="600" as="targetPoint" />
          </mxGeometry>
        </mxCell>
        <mxCell id="EbB1QgQNDdHdvBnAkDd7-85" value="1..*" style="resizable=0;html=1;whiteSpace=wrap;align=right;verticalAlign=bottom;" parent="EbB1QgQNDdHdvBnAkDd7-84" connectable="0" vertex="1">
          <mxGeometry x="1" relative="1" as="geometry">
            <mxPoint x="-20" as="offset" />
          </mxGeometry>
        </mxCell>
        <mxCell id="EbB1QgQNDdHdvBnAkDd7-89" value="" style="endArrow=none;html=1;rounded=0;exitX=1.008;exitY=0.344;exitDx=0;exitDy=0;exitPerimeter=0;" parent="1" source="EbB1QgQNDdHdvBnAkDd7-19" target="EbB1QgQNDdHdvBnAkDd7-79" edge="1">
          <mxGeometry relative="1" as="geometry">
            <mxPoint x="380" y="650" as="sourcePoint" />
            <mxPoint x="540" y="650" as="targetPoint" />
          </mxGeometry>
        </mxCell>
        <mxCell id="EbB1QgQNDdHdvBnAkDd7-90" value="1..*" style="resizable=0;html=1;whiteSpace=wrap;align=right;verticalAlign=bottom;" parent="EbB1QgQNDdHdvBnAkDd7-89" connectable="0" vertex="1">
          <mxGeometry x="1" relative="1" as="geometry">
            <mxPoint x="-11" as="offset" />
          </mxGeometry>
        </mxCell>
        <mxCell id="EbB1QgQNDdHdvBnAkDd7-91" value="entrances" style="shape=table;startSize=30;container=1;collapsible=1;childLayout=tableLayout;fixedRows=1;rowLines=0;fontStyle=1;align=center;resizeLast=1;html=1;" parent="1" vertex="1">
          <mxGeometry x="970" y="530.25" width="180" height="106.75" as="geometry" />
        </mxCell>
        <mxCell id="EbB1QgQNDdHdvBnAkDd7-92" value="" style="shape=tableRow;horizontal=0;startSize=0;swimlaneHead=0;swimlaneBody=0;fillColor=none;collapsible=0;dropTarget=0;points=[[0,0.5],[1,0.5]];portConstraint=eastwest;top=0;left=0;right=0;bottom=1;" parent="EbB1QgQNDdHdvBnAkDd7-91" vertex="1">
          <mxGeometry y="30" width="180" height="30" as="geometry" />
        </mxCell>
        <mxCell id="EbB1QgQNDdHdvBnAkDd7-93" value="PK" style="shape=partialRectangle;connectable=0;fillColor=none;top=0;left=0;bottom=0;right=0;fontStyle=1;overflow=hidden;whiteSpace=wrap;html=1;" parent="EbB1QgQNDdHdvBnAkDd7-92" vertex="1">
          <mxGeometry width="30" height="30" as="geometry">
            <mxRectangle width="30" height="30" as="alternateBounds" />
          </mxGeometry>
        </mxCell>
        <mxCell id="EbB1QgQNDdHdvBnAkDd7-94" value="entrance_id" style="shape=partialRectangle;connectable=0;fillColor=none;top=0;left=0;bottom=0;right=0;align=left;spacingLeft=6;fontStyle=5;overflow=hidden;whiteSpace=wrap;html=1;" parent="EbB1QgQNDdHdvBnAkDd7-92" vertex="1">
          <mxGeometry x="30" width="150" height="30" as="geometry">
            <mxRectangle width="150" height="30" as="alternateBounds" />
          </mxGeometry>
        </mxCell>
        <mxCell id="EbB1QgQNDdHdvBnAkDd7-95" value="" style="shape=tableRow;horizontal=0;startSize=0;swimlaneHead=0;swimlaneBody=0;fillColor=none;collapsible=0;dropTarget=0;points=[[0,0.5],[1,0.5]];portConstraint=eastwest;top=0;left=0;right=0;bottom=0;" parent="EbB1QgQNDdHdvBnAkDd7-91" vertex="1">
          <mxGeometry y="60" width="180" height="44" as="geometry" />
        </mxCell>
        <mxCell id="EbB1QgQNDdHdvBnAkDd7-96" value="" style="shape=partialRectangle;connectable=0;fillColor=none;top=0;left=0;bottom=0;right=0;editable=1;overflow=hidden;whiteSpace=wrap;html=1;" parent="EbB1QgQNDdHdvBnAkDd7-95" vertex="1">
          <mxGeometry width="30" height="44" as="geometry">
            <mxRectangle width="30" height="44" as="alternateBounds" />
          </mxGeometry>
        </mxCell>
        <mxCell id="EbB1QgQNDdHdvBnAkDd7-97" value="name" style="shape=partialRectangle;connectable=0;fillColor=none;top=0;left=0;bottom=0;right=0;align=left;spacingLeft=6;overflow=hidden;whiteSpace=wrap;html=1;" parent="EbB1QgQNDdHdvBnAkDd7-95" vertex="1">
          <mxGeometry x="30" width="150" height="44" as="geometry">
            <mxRectangle width="150" height="44" as="alternateBounds" />
          </mxGeometry>
        </mxCell>
        <mxCell id="EbB1QgQNDdHdvBnAkDd7-115" value="" style="endArrow=none;html=1;rounded=0;exitX=0;exitY=0.5;exitDx=0;exitDy=0;" parent="1" edge="1">
          <mxGeometry relative="1" as="geometry">
            <mxPoint x="809.56" y="585" as="sourcePoint" />
            <mxPoint x="770" y="585" as="targetPoint" />
          </mxGeometry>
        </mxCell>
        <mxCell id="EbB1QgQNDdHdvBnAkDd7-116" value="0..*" style="resizable=0;html=1;whiteSpace=wrap;align=right;verticalAlign=bottom;" parent="EbB1QgQNDdHdvBnAkDd7-115" connectable="0" vertex="1">
          <mxGeometry x="1" relative="1" as="geometry">
            <mxPoint x="36" y="1" as="offset" />
          </mxGeometry>
        </mxCell>
        <mxCell id="EbB1QgQNDdHdvBnAkDd7-117" value="" style="endArrow=none;html=1;rounded=0;entryX=-0.003;entryY=0.519;entryDx=0;entryDy=0;entryPerimeter=0;exitX=1;exitY=0.5;exitDx=0;exitDy=0;" parent="1" target="EbB1QgQNDdHdvBnAkDd7-246" edge="1">
          <mxGeometry relative="1" as="geometry">
            <mxPoint x="929.56" y="586" as="sourcePoint" />
            <mxPoint x="600" y="596" as="targetPoint" />
          </mxGeometry>
        </mxCell>
        <mxCell id="EbB1QgQNDdHdvBnAkDd7-118" value="1..1" style="resizable=0;html=1;whiteSpace=wrap;align=right;verticalAlign=bottom;" parent="EbB1QgQNDdHdvBnAkDd7-117" connectable="0" vertex="1">
          <mxGeometry x="1" relative="1" as="geometry">
            <mxPoint x="-14" as="offset" />
          </mxGeometry>
        </mxCell>
        <mxCell id="EbB1QgQNDdHdvBnAkDd7-138" value="buildings" style="shape=table;startSize=30;container=1;collapsible=1;childLayout=tableLayout;fixedRows=1;rowLines=0;fontStyle=1;align=center;resizeLast=1;html=1;" parent="1" vertex="1">
          <mxGeometry x="1349" y="532.25" width="180" height="106.75" as="geometry" />
        </mxCell>
        <mxCell id="EbB1QgQNDdHdvBnAkDd7-139" value="" style="shape=tableRow;horizontal=0;startSize=0;swimlaneHead=0;swimlaneBody=0;fillColor=none;collapsible=0;dropTarget=0;points=[[0,0.5],[1,0.5]];portConstraint=eastwest;top=0;left=0;right=0;bottom=1;" parent="EbB1QgQNDdHdvBnAkDd7-138" vertex="1">
          <mxGeometry y="30" width="180" height="30" as="geometry" />
        </mxCell>
        <mxCell id="EbB1QgQNDdHdvBnAkDd7-140" value="PK" style="shape=partialRectangle;connectable=0;fillColor=none;top=0;left=0;bottom=0;right=0;fontStyle=1;overflow=hidden;whiteSpace=wrap;html=1;" parent="EbB1QgQNDdHdvBnAkDd7-139" vertex="1">
          <mxGeometry width="30" height="30" as="geometry">
            <mxRectangle width="30" height="30" as="alternateBounds" />
          </mxGeometry>
        </mxCell>
        <mxCell id="EbB1QgQNDdHdvBnAkDd7-141" value="building_id" style="shape=partialRectangle;connectable=0;fillColor=none;top=0;left=0;bottom=0;right=0;align=left;spacingLeft=6;fontStyle=5;overflow=hidden;whiteSpace=wrap;html=1;" parent="EbB1QgQNDdHdvBnAkDd7-139" vertex="1">
          <mxGeometry x="30" width="150" height="30" as="geometry">
            <mxRectangle width="150" height="30" as="alternateBounds" />
          </mxGeometry>
        </mxCell>
        <mxCell id="EbB1QgQNDdHdvBnAkDd7-142" value="" style="shape=tableRow;horizontal=0;startSize=0;swimlaneHead=0;swimlaneBody=0;fillColor=none;collapsible=0;dropTarget=0;points=[[0,0.5],[1,0.5]];portConstraint=eastwest;top=0;left=0;right=0;bottom=0;" parent="EbB1QgQNDdHdvBnAkDd7-138" vertex="1">
          <mxGeometry y="60" width="180" height="44" as="geometry" />
        </mxCell>
        <mxCell id="EbB1QgQNDdHdvBnAkDd7-143" value="" style="shape=partialRectangle;connectable=0;fillColor=none;top=0;left=0;bottom=0;right=0;editable=1;overflow=hidden;whiteSpace=wrap;html=1;" parent="EbB1QgQNDdHdvBnAkDd7-142" vertex="1">
          <mxGeometry width="30" height="44" as="geometry">
            <mxRectangle width="30" height="44" as="alternateBounds" />
          </mxGeometry>
        </mxCell>
        <mxCell id="EbB1QgQNDdHdvBnAkDd7-144" value="position" style="shape=partialRectangle;connectable=0;fillColor=none;top=0;left=0;bottom=0;right=0;align=left;spacingLeft=6;overflow=hidden;whiteSpace=wrap;html=1;" parent="EbB1QgQNDdHdvBnAkDd7-142" vertex="1">
          <mxGeometry x="30" width="150" height="44" as="geometry">
            <mxRectangle width="150" height="44" as="alternateBounds" />
          </mxGeometry>
        </mxCell>
        <mxCell id="EbB1QgQNDdHdvBnAkDd7-146" value="" style="endArrow=none;html=1;rounded=0;exitX=0;exitY=0.5;exitDx=0;exitDy=0;entryX=1.004;entryY=0.542;entryDx=0;entryDy=0;entryPerimeter=0;" parent="1" target="EbB1QgQNDdHdvBnAkDd7-246" edge="1">
          <mxGeometry relative="1" as="geometry">
            <mxPoint x="1188.56" y="588" as="sourcePoint" />
            <mxPoint x="1150" y="588" as="targetPoint" />
          </mxGeometry>
        </mxCell>
        <mxCell id="EbB1QgQNDdHdvBnAkDd7-147" value="0..*" style="resizable=0;html=1;whiteSpace=wrap;align=right;verticalAlign=bottom;" parent="EbB1QgQNDdHdvBnAkDd7-146" connectable="0" vertex="1">
          <mxGeometry x="1" relative="1" as="geometry">
            <mxPoint x="36" as="offset" />
          </mxGeometry>
        </mxCell>
        <mxCell id="EbB1QgQNDdHdvBnAkDd7-148" value="" style="endArrow=none;html=1;rounded=0;entryX=0.005;entryY=-0.104;entryDx=0;entryDy=0;entryPerimeter=0;exitX=1;exitY=0.5;exitDx=0;exitDy=0;" parent="1" target="EbB1QgQNDdHdvBnAkDd7-142" edge="1">
          <mxGeometry relative="1" as="geometry">
            <mxPoint x="1308.56" y="588" as="sourcePoint" />
            <mxPoint x="979" y="598" as="targetPoint" />
          </mxGeometry>
        </mxCell>
        <mxCell id="EbB1QgQNDdHdvBnAkDd7-149" value="1..1" style="resizable=0;html=1;whiteSpace=wrap;align=right;verticalAlign=bottom;" parent="EbB1QgQNDdHdvBnAkDd7-148" connectable="0" vertex="1">
          <mxGeometry x="1" relative="1" as="geometry">
            <mxPoint x="-14" as="offset" />
          </mxGeometry>
        </mxCell>
        <mxCell id="EbB1QgQNDdHdvBnAkDd7-150" value="bus_names" style="shape=table;startSize=30;container=1;collapsible=1;childLayout=tableLayout;fixedRows=1;rowLines=0;fontStyle=1;align=center;resizeLast=1;html=1;" parent="1" vertex="1">
          <mxGeometry x="1161" y="697.25" width="180" height="106.75" as="geometry" />
        </mxCell>
        <mxCell id="EbB1QgQNDdHdvBnAkDd7-151" value="" style="shape=tableRow;horizontal=0;startSize=0;swimlaneHead=0;swimlaneBody=0;fillColor=none;collapsible=0;dropTarget=0;points=[[0,0.5],[1,0.5]];portConstraint=eastwest;top=0;left=0;right=0;bottom=1;" parent="EbB1QgQNDdHdvBnAkDd7-150" vertex="1">
          <mxGeometry y="30" width="180" height="30" as="geometry" />
        </mxCell>
        <mxCell id="EbB1QgQNDdHdvBnAkDd7-152" value="PK" style="shape=partialRectangle;connectable=0;fillColor=none;top=0;left=0;bottom=0;right=0;fontStyle=1;overflow=hidden;whiteSpace=wrap;html=1;" parent="EbB1QgQNDdHdvBnAkDd7-151" vertex="1">
          <mxGeometry width="30" height="30" as="geometry">
            <mxRectangle width="30" height="30" as="alternateBounds" />
          </mxGeometry>
        </mxCell>
        <mxCell id="EbB1QgQNDdHdvBnAkDd7-153" value="bus_out_id" style="shape=partialRectangle;connectable=0;fillColor=none;top=0;left=0;bottom=0;right=0;align=left;spacingLeft=6;fontStyle=5;overflow=hidden;whiteSpace=wrap;html=1;" parent="EbB1QgQNDdHdvBnAkDd7-151" vertex="1">
          <mxGeometry x="30" width="150" height="30" as="geometry">
            <mxRectangle width="150" height="30" as="alternateBounds" />
          </mxGeometry>
        </mxCell>
        <mxCell id="EbB1QgQNDdHdvBnAkDd7-154" value="" style="shape=tableRow;horizontal=0;startSize=0;swimlaneHead=0;swimlaneBody=0;fillColor=none;collapsible=0;dropTarget=0;points=[[0,0.5],[1,0.5]];portConstraint=eastwest;top=0;left=0;right=0;bottom=0;" parent="EbB1QgQNDdHdvBnAkDd7-150" vertex="1">
          <mxGeometry y="60" width="180" height="44" as="geometry" />
        </mxCell>
        <mxCell id="EbB1QgQNDdHdvBnAkDd7-155" value="" style="shape=partialRectangle;connectable=0;fillColor=none;top=0;left=0;bottom=0;right=0;editable=1;overflow=hidden;whiteSpace=wrap;html=1;" parent="EbB1QgQNDdHdvBnAkDd7-154" vertex="1">
          <mxGeometry width="30" height="44" as="geometry">
            <mxRectangle width="30" height="44" as="alternateBounds" />
          </mxGeometry>
        </mxCell>
        <mxCell id="EbB1QgQNDdHdvBnAkDd7-156" value="name" style="shape=partialRectangle;connectable=0;fillColor=none;top=0;left=0;bottom=0;right=0;align=left;spacingLeft=6;overflow=hidden;whiteSpace=wrap;html=1;" parent="EbB1QgQNDdHdvBnAkDd7-154" vertex="1">
          <mxGeometry x="30" width="150" height="44" as="geometry">
            <mxRectangle width="150" height="44" as="alternateBounds" />
          </mxGeometry>
        </mxCell>
        <mxCell id="EbB1QgQNDdHdvBnAkDd7-158" value="" style="endArrow=none;html=1;rounded=0;exitX=0.5;exitY=0;exitDx=0;exitDy=0;" parent="1" edge="1">
          <mxGeometry relative="1" as="geometry">
            <mxPoint x="1060.56" y="723" as="sourcePoint" />
            <mxPoint x="1061" y="640" as="targetPoint" />
          </mxGeometry>
        </mxCell>
        <mxCell id="EbB1QgQNDdHdvBnAkDd7-159" value="0..*" style="resizable=0;html=1;whiteSpace=wrap;align=right;verticalAlign=bottom;rotation=0;" parent="EbB1QgQNDdHdvBnAkDd7-158" connectable="0" vertex="1">
          <mxGeometry x="1" relative="1" as="geometry">
            <mxPoint x="25" y="56" as="offset" />
          </mxGeometry>
        </mxCell>
        <mxCell id="EbB1QgQNDdHdvBnAkDd7-160" value="" style="endArrow=none;html=1;rounded=0;entryX=0.005;entryY=-0.104;entryDx=0;entryDy=0;entryPerimeter=0;exitX=1;exitY=0.5;exitDx=0;exitDy=0;" parent="1" target="EbB1QgQNDdHdvBnAkDd7-154" edge="1">
          <mxGeometry relative="1" as="geometry">
            <mxPoint x="1120.56" y="753" as="sourcePoint" />
            <mxPoint x="791" y="763" as="targetPoint" />
          </mxGeometry>
        </mxCell>
        <mxCell id="EbB1QgQNDdHdvBnAkDd7-161" value="1..1" style="resizable=0;html=1;whiteSpace=wrap;align=right;verticalAlign=bottom;" parent="EbB1QgQNDdHdvBnAkDd7-160" connectable="0" vertex="1">
          <mxGeometry x="1" relative="1" as="geometry">
            <mxPoint x="-14" as="offset" />
          </mxGeometry>
        </mxCell>
        <mxCell id="EbB1QgQNDdHdvBnAkDd7-162" value="bus_lines" style="shape=table;startSize=30;container=1;collapsible=1;childLayout=tableLayout;fixedRows=1;rowLines=0;fontStyle=1;align=center;resizeLast=1;html=1;" parent="1" vertex="1">
          <mxGeometry x="1540" y="699.25" width="180" height="106.75" as="geometry" />
        </mxCell>
        <mxCell id="EbB1QgQNDdHdvBnAkDd7-163" value="" style="shape=tableRow;horizontal=0;startSize=0;swimlaneHead=0;swimlaneBody=0;fillColor=none;collapsible=0;dropTarget=0;points=[[0,0.5],[1,0.5]];portConstraint=eastwest;top=0;left=0;right=0;bottom=1;" parent="EbB1QgQNDdHdvBnAkDd7-162" vertex="1">
          <mxGeometry y="30" width="180" height="30" as="geometry" />
        </mxCell>
        <mxCell id="EbB1QgQNDdHdvBnAkDd7-164" value="PK" style="shape=partialRectangle;connectable=0;fillColor=none;top=0;left=0;bottom=0;right=0;fontStyle=1;overflow=hidden;whiteSpace=wrap;html=1;" parent="EbB1QgQNDdHdvBnAkDd7-163" vertex="1">
          <mxGeometry width="30" height="30" as="geometry">
            <mxRectangle width="30" height="30" as="alternateBounds" />
          </mxGeometry>
        </mxCell>
        <mxCell id="EbB1QgQNDdHdvBnAkDd7-165" value="bus_line_id" style="shape=partialRectangle;connectable=0;fillColor=none;top=0;left=0;bottom=0;right=0;align=left;spacingLeft=6;fontStyle=5;overflow=hidden;whiteSpace=wrap;html=1;" parent="EbB1QgQNDdHdvBnAkDd7-163" vertex="1">
          <mxGeometry x="30" width="150" height="30" as="geometry">
            <mxRectangle width="150" height="30" as="alternateBounds" />
          </mxGeometry>
        </mxCell>
        <mxCell id="EbB1QgQNDdHdvBnAkDd7-166" value="" style="shape=tableRow;horizontal=0;startSize=0;swimlaneHead=0;swimlaneBody=0;fillColor=none;collapsible=0;dropTarget=0;points=[[0,0.5],[1,0.5]];portConstraint=eastwest;top=0;left=0;right=0;bottom=0;" parent="EbB1QgQNDdHdvBnAkDd7-162" vertex="1">
          <mxGeometry y="60" width="180" height="44" as="geometry" />
        </mxCell>
        <mxCell id="EbB1QgQNDdHdvBnAkDd7-167" value="" style="shape=partialRectangle;connectable=0;fillColor=none;top=0;left=0;bottom=0;right=0;editable=1;overflow=hidden;whiteSpace=wrap;html=1;" parent="EbB1QgQNDdHdvBnAkDd7-166" vertex="1">
          <mxGeometry width="30" height="44" as="geometry">
            <mxRectangle width="30" height="44" as="alternateBounds" />
          </mxGeometry>
        </mxCell>
        <mxCell id="EbB1QgQNDdHdvBnAkDd7-168" value="line_number" style="shape=partialRectangle;connectable=0;fillColor=none;top=0;left=0;bottom=0;right=0;align=left;spacingLeft=6;overflow=hidden;whiteSpace=wrap;html=1;" parent="EbB1QgQNDdHdvBnAkDd7-166" vertex="1">
          <mxGeometry x="30" width="150" height="44" as="geometry">
            <mxRectangle width="150" height="44" as="alternateBounds" />
          </mxGeometry>
        </mxCell>
        <mxCell id="EbB1QgQNDdHdvBnAkDd7-170" value="" style="endArrow=none;html=1;rounded=0;exitX=0;exitY=0.5;exitDx=0;exitDy=0;" parent="1" edge="1">
          <mxGeometry relative="1" as="geometry">
            <mxPoint x="1379.56" y="753" as="sourcePoint" />
            <mxPoint x="1341" y="753" as="targetPoint" />
          </mxGeometry>
        </mxCell>
        <mxCell id="EbB1QgQNDdHdvBnAkDd7-171" value="0..*" style="resizable=0;html=1;whiteSpace=wrap;align=right;verticalAlign=bottom;" parent="EbB1QgQNDdHdvBnAkDd7-170" connectable="0" vertex="1">
          <mxGeometry x="1" relative="1" as="geometry">
            <mxPoint x="36" as="offset" />
          </mxGeometry>
        </mxCell>
        <mxCell id="EbB1QgQNDdHdvBnAkDd7-172" value="" style="endArrow=none;html=1;rounded=0;exitX=1;exitY=0.5;exitDx=0;exitDy=0;entryX=0;entryY=0.5;entryDx=0;entryDy=0;" parent="1" target="EbB1QgQNDdHdvBnAkDd7-249" edge="1">
          <mxGeometry relative="1" as="geometry">
            <mxPoint x="1499.56" y="753" as="sourcePoint" />
            <mxPoint x="1530" y="753" as="targetPoint" />
          </mxGeometry>
        </mxCell>
        <mxCell id="EbB1QgQNDdHdvBnAkDd7-173" value="1..1" style="resizable=0;html=1;whiteSpace=wrap;align=right;verticalAlign=bottom;" parent="EbB1QgQNDdHdvBnAkDd7-172" connectable="0" vertex="1">
          <mxGeometry x="1" relative="1" as="geometry">
            <mxPoint x="-14" as="offset" />
          </mxGeometry>
        </mxCell>
        <mxCell id="EbB1QgQNDdHdvBnAkDd7-191" value="ride using card" style="shape=rhombus;perimeter=rhombusPerimeter;whiteSpace=wrap;html=1;align=center;" parent="1" vertex="1">
          <mxGeometry x="629.5" y="745.34" width="120" height="60" as="geometry" />
        </mxCell>
        <mxCell id="EbB1QgQNDdHdvBnAkDd7-196" value="" style="endArrow=none;html=1;rounded=0;exitX=0;exitY=0;exitDx=0;exitDy=0;" parent="1" source="EbB1QgQNDdHdvBnAkDd7-191" edge="1">
          <mxGeometry relative="1" as="geometry">
            <mxPoint x="540" y="602" as="sourcePoint" />
            <mxPoint x="660" y="660" as="targetPoint" />
          </mxGeometry>
        </mxCell>
        <mxCell id="EbB1QgQNDdHdvBnAkDd7-197" value="1...*" style="resizable=0;html=1;whiteSpace=wrap;align=right;verticalAlign=bottom;rotation=0;" parent="EbB1QgQNDdHdvBnAkDd7-196" connectable="0" vertex="1">
          <mxGeometry x="1" relative="1" as="geometry">
            <mxPoint x="-7" y="44" as="offset" />
          </mxGeometry>
        </mxCell>
        <mxCell id="EbB1QgQNDdHdvBnAkDd7-198" value="" style="endArrow=none;html=1;rounded=0;entryX=0.5;entryY=1;entryDx=0;entryDy=0;exitX=0.5;exitY=0;exitDx=0;exitDy=0;" parent="1" source="EbB1QgQNDdHdvBnAkDd7-253" target="EbB1QgQNDdHdvBnAkDd7-191" edge="1">
          <mxGeometry relative="1" as="geometry">
            <mxPoint x="687.5" y="930.34" as="sourcePoint" />
            <mxPoint x="717.5" y="605.3399999999999" as="targetPoint" />
          </mxGeometry>
        </mxCell>
        <mxCell id="EbB1QgQNDdHdvBnAkDd7-199" value="1..*" style="resizable=0;html=1;whiteSpace=wrap;align=right;verticalAlign=bottom;rotation=0;" parent="EbB1QgQNDdHdvBnAkDd7-198" connectable="0" vertex="1">
          <mxGeometry x="1" relative="1" as="geometry">
            <mxPoint x="27" y="40" as="offset" />
          </mxGeometry>
        </mxCell>
        <mxCell id="EbB1QgQNDdHdvBnAkDd7-200" value="an entrance of" style="shape=rhombus;double=1;perimeter=rhombusPerimeter;whiteSpace=wrap;html=1;align=center;" parent="1" vertex="1">
          <mxGeometry x="807.56" y="556" width="120" height="60" as="geometry" />
        </mxCell>
        <mxCell id="EbB1QgQNDdHdvBnAkDd7-224" value="ride using user id" style="shape=rhombus;perimeter=rhombusPerimeter;whiteSpace=wrap;html=1;align=center;" parent="1" vertex="1">
          <mxGeometry x="619" y="334" width="120" height="60" as="geometry" />
        </mxCell>
        <mxCell id="EbB1QgQNDdHdvBnAkDd7-228" value="" style="endArrow=none;html=1;rounded=0;exitX=0.496;exitY=1.009;exitDx=0;exitDy=0;exitPerimeter=0;entryX=0.5;entryY=0;entryDx=0;entryDy=0;" parent="1" source="EbB1QgQNDdHdvBnAkDd7-279" target="EbB1QgQNDdHdvBnAkDd7-224" edge="1">
          <mxGeometry relative="1" as="geometry">
            <mxPoint x="1079" y="1026.17" as="sourcePoint" />
            <mxPoint x="679" y="323" as="targetPoint" />
          </mxGeometry>
        </mxCell>
        <mxCell id="EbB1QgQNDdHdvBnAkDd7-237" value="can go to" style="shape=rhombus;double=1;perimeter=rhombusPerimeter;whiteSpace=wrap;html=1;align=center;" parent="1" vertex="1">
          <mxGeometry x="1190" y="558" width="120" height="60" as="geometry" />
        </mxCell>
        <mxCell id="EbB1QgQNDdHdvBnAkDd7-243" value="has bus shuttle" style="shape=rhombus;double=1;perimeter=rhombusPerimeter;whiteSpace=wrap;html=1;align=center;" parent="1" vertex="1">
          <mxGeometry x="1000" y="723" width="120" height="60" as="geometry" />
        </mxCell>
        <mxCell id="EbB1QgQNDdHdvBnAkDd7-244" value="has this bus line" style="shape=rhombus;double=1;perimeter=rhombusPerimeter;whiteSpace=wrap;html=1;align=center;" parent="1" vertex="1">
          <mxGeometry x="1379" y="722.63" width="120" height="60" as="geometry" />
        </mxCell>
        <mxCell id="EbB1QgQNDdHdvBnAkDd7-253" value="cards" style="shape=table;startSize=30;container=1;collapsible=1;childLayout=tableLayout;fixedRows=1;rowLines=0;fontStyle=1;align=center;resizeLast=1;html=1;" parent="1" vertex="1">
          <mxGeometry x="599.5" y="874.34" width="180" height="120" as="geometry" />
        </mxCell>
        <mxCell id="EbB1QgQNDdHdvBnAkDd7-254" value="" style="shape=tableRow;horizontal=0;startSize=0;swimlaneHead=0;swimlaneBody=0;fillColor=none;collapsible=0;dropTarget=0;points=[[0,0.5],[1,0.5]];portConstraint=eastwest;top=0;left=0;right=0;bottom=1;" parent="EbB1QgQNDdHdvBnAkDd7-253" vertex="1">
          <mxGeometry y="30" width="180" height="30" as="geometry" />
        </mxCell>
        <mxCell id="EbB1QgQNDdHdvBnAkDd7-255" value="PK" style="shape=partialRectangle;connectable=0;fillColor=none;top=0;left=0;bottom=0;right=0;fontStyle=1;overflow=hidden;whiteSpace=wrap;html=1;" parent="EbB1QgQNDdHdvBnAkDd7-254" vertex="1">
          <mxGeometry width="30" height="30" as="geometry">
            <mxRectangle width="30" height="30" as="alternateBounds" />
          </mxGeometry>
        </mxCell>
        <mxCell id="EbB1QgQNDdHdvBnAkDd7-256" value="card_number" style="shape=partialRectangle;connectable=0;fillColor=none;top=0;left=0;bottom=0;right=0;align=left;spacingLeft=6;fontStyle=5;overflow=hidden;whiteSpace=wrap;html=1;" parent="EbB1QgQNDdHdvBnAkDd7-254" vertex="1">
          <mxGeometry x="30" width="150" height="30" as="geometry">
            <mxRectangle width="150" height="30" as="alternateBounds" />
          </mxGeometry>
        </mxCell>
        <mxCell id="EbB1QgQNDdHdvBnAkDd7-257" value="" style="shape=tableRow;horizontal=0;startSize=0;swimlaneHead=0;swimlaneBody=0;fillColor=none;collapsible=0;dropTarget=0;points=[[0,0.5],[1,0.5]];portConstraint=eastwest;top=0;left=0;right=0;bottom=0;" parent="EbB1QgQNDdHdvBnAkDd7-253" vertex="1">
          <mxGeometry y="60" width="180" height="30" as="geometry" />
        </mxCell>
        <mxCell id="EbB1QgQNDdHdvBnAkDd7-258" value="" style="shape=partialRectangle;connectable=0;fillColor=none;top=0;left=0;bottom=0;right=0;editable=1;overflow=hidden;whiteSpace=wrap;html=1;" parent="EbB1QgQNDdHdvBnAkDd7-257" vertex="1">
          <mxGeometry width="30" height="30" as="geometry">
            <mxRectangle width="30" height="30" as="alternateBounds" />
          </mxGeometry>
        </mxCell>
        <mxCell id="EbB1QgQNDdHdvBnAkDd7-259" value="money" style="shape=partialRectangle;connectable=0;fillColor=none;top=0;left=0;bottom=0;right=0;align=left;spacingLeft=6;overflow=hidden;whiteSpace=wrap;html=1;" parent="EbB1QgQNDdHdvBnAkDd7-257" vertex="1">
          <mxGeometry x="30" width="150" height="30" as="geometry">
            <mxRectangle width="150" height="30" as="alternateBounds" />
          </mxGeometry>
        </mxCell>
        <mxCell id="EbB1QgQNDdHdvBnAkDd7-260" value="" style="shape=tableRow;horizontal=0;startSize=0;swimlaneHead=0;swimlaneBody=0;fillColor=none;collapsible=0;dropTarget=0;points=[[0,0.5],[1,0.5]];portConstraint=eastwest;top=0;left=0;right=0;bottom=0;" parent="EbB1QgQNDdHdvBnAkDd7-253" vertex="1">
          <mxGeometry y="90" width="180" height="30" as="geometry" />
        </mxCell>
        <mxCell id="EbB1QgQNDdHdvBnAkDd7-261" value="" style="shape=partialRectangle;connectable=0;fillColor=none;top=0;left=0;bottom=0;right=0;editable=1;overflow=hidden;whiteSpace=wrap;html=1;" parent="EbB1QgQNDdHdvBnAkDd7-260" vertex="1">
          <mxGeometry width="30" height="30" as="geometry">
            <mxRectangle width="30" height="30" as="alternateBounds" />
          </mxGeometry>
        </mxCell>
        <mxCell id="EbB1QgQNDdHdvBnAkDd7-262" value="create_time" style="shape=partialRectangle;connectable=0;fillColor=none;top=0;left=0;bottom=0;right=0;align=left;spacingLeft=6;overflow=hidden;whiteSpace=wrap;html=1;" parent="EbB1QgQNDdHdvBnAkDd7-260" vertex="1">
          <mxGeometry x="30" width="150" height="30" as="geometry">
            <mxRectangle width="150" height="30" as="alternateBounds" />
          </mxGeometry>
        </mxCell>
        <mxCell id="EbB1QgQNDdHdvBnAkDd7-266" value="users" style="shape=table;startSize=30;container=1;collapsible=1;childLayout=tableLayout;fixedRows=1;rowLines=0;fontStyle=1;align=center;resizeLast=1;html=1;" parent="1" vertex="1">
          <mxGeometry x="590" y="113" width="180" height="180" as="geometry" />
        </mxCell>
        <mxCell id="EbB1QgQNDdHdvBnAkDd7-267" value="" style="shape=tableRow;horizontal=0;startSize=0;swimlaneHead=0;swimlaneBody=0;fillColor=none;collapsible=0;dropTarget=0;points=[[0,0.5],[1,0.5]];portConstraint=eastwest;top=0;left=0;right=0;bottom=1;" parent="EbB1QgQNDdHdvBnAkDd7-266" vertex="1">
          <mxGeometry y="30" width="180" height="30" as="geometry" />
        </mxCell>
        <mxCell id="EbB1QgQNDdHdvBnAkDd7-268" value="PK" style="shape=partialRectangle;connectable=0;fillColor=none;top=0;left=0;bottom=0;right=0;fontStyle=1;overflow=hidden;whiteSpace=wrap;html=1;" parent="EbB1QgQNDdHdvBnAkDd7-267" vertex="1">
          <mxGeometry width="30" height="30" as="geometry">
            <mxRectangle width="30" height="30" as="alternateBounds" />
          </mxGeometry>
        </mxCell>
        <mxCell id="EbB1QgQNDdHdvBnAkDd7-269" value="user_id_number" style="shape=partialRectangle;connectable=0;fillColor=none;top=0;left=0;bottom=0;right=0;align=left;spacingLeft=6;fontStyle=5;overflow=hidden;whiteSpace=wrap;html=1;" parent="EbB1QgQNDdHdvBnAkDd7-267" vertex="1">
          <mxGeometry x="30" width="150" height="30" as="geometry">
            <mxRectangle width="150" height="30" as="alternateBounds" />
          </mxGeometry>
        </mxCell>
        <mxCell id="EbB1QgQNDdHdvBnAkDd7-270" value="" style="shape=tableRow;horizontal=0;startSize=0;swimlaneHead=0;swimlaneBody=0;fillColor=none;collapsible=0;dropTarget=0;points=[[0,0.5],[1,0.5]];portConstraint=eastwest;top=0;left=0;right=0;bottom=0;" parent="EbB1QgQNDdHdvBnAkDd7-266" vertex="1">
          <mxGeometry y="60" width="180" height="30" as="geometry" />
        </mxCell>
        <mxCell id="EbB1QgQNDdHdvBnAkDd7-271" value="" style="shape=partialRectangle;connectable=0;fillColor=none;top=0;left=0;bottom=0;right=0;editable=1;overflow=hidden;whiteSpace=wrap;html=1;" parent="EbB1QgQNDdHdvBnAkDd7-270" vertex="1">
          <mxGeometry width="30" height="30" as="geometry">
            <mxRectangle width="30" height="30" as="alternateBounds" />
          </mxGeometry>
        </mxCell>
        <mxCell id="EbB1QgQNDdHdvBnAkDd7-272" value="name" style="shape=partialRectangle;connectable=0;fillColor=none;top=0;left=0;bottom=0;right=0;align=left;spacingLeft=6;overflow=hidden;whiteSpace=wrap;html=1;" parent="EbB1QgQNDdHdvBnAkDd7-270" vertex="1">
          <mxGeometry x="30" width="150" height="30" as="geometry">
            <mxRectangle width="150" height="30" as="alternateBounds" />
          </mxGeometry>
        </mxCell>
        <mxCell id="EbB1QgQNDdHdvBnAkDd7-273" value="" style="shape=tableRow;horizontal=0;startSize=0;swimlaneHead=0;swimlaneBody=0;fillColor=none;collapsible=0;dropTarget=0;points=[[0,0.5],[1,0.5]];portConstraint=eastwest;top=0;left=0;right=0;bottom=0;" parent="EbB1QgQNDdHdvBnAkDd7-266" vertex="1">
          <mxGeometry y="90" width="180" height="30" as="geometry" />
        </mxCell>
        <mxCell id="EbB1QgQNDdHdvBnAkDd7-274" value="" style="shape=partialRectangle;connectable=0;fillColor=none;top=0;left=0;bottom=0;right=0;editable=1;overflow=hidden;whiteSpace=wrap;html=1;" parent="EbB1QgQNDdHdvBnAkDd7-273" vertex="1">
          <mxGeometry width="30" height="30" as="geometry">
            <mxRectangle width="30" height="30" as="alternateBounds" />
          </mxGeometry>
        </mxCell>
        <mxCell id="EbB1QgQNDdHdvBnAkDd7-275" value="phone" style="shape=partialRectangle;connectable=0;fillColor=none;top=0;left=0;bottom=0;right=0;align=left;spacingLeft=6;overflow=hidden;whiteSpace=wrap;html=1;" parent="EbB1QgQNDdHdvBnAkDd7-273" vertex="1">
          <mxGeometry x="30" width="150" height="30" as="geometry">
            <mxRectangle width="150" height="30" as="alternateBounds" />
          </mxGeometry>
        </mxCell>
        <mxCell id="EbB1QgQNDdHdvBnAkDd7-276" value="" style="shape=tableRow;horizontal=0;startSize=0;swimlaneHead=0;swimlaneBody=0;fillColor=none;collapsible=0;dropTarget=0;points=[[0,0.5],[1,0.5]];portConstraint=eastwest;top=0;left=0;right=0;bottom=0;" parent="EbB1QgQNDdHdvBnAkDd7-266" vertex="1">
          <mxGeometry y="120" width="180" height="30" as="geometry" />
        </mxCell>
        <mxCell id="EbB1QgQNDdHdvBnAkDd7-277" value="" style="shape=partialRectangle;connectable=0;fillColor=none;top=0;left=0;bottom=0;right=0;editable=1;overflow=hidden;whiteSpace=wrap;html=1;" parent="EbB1QgQNDdHdvBnAkDd7-276" vertex="1">
          <mxGeometry width="30" height="30" as="geometry">
            <mxRectangle width="30" height="30" as="alternateBounds" />
          </mxGeometry>
        </mxCell>
        <mxCell id="EbB1QgQNDdHdvBnAkDd7-278" value="gender" style="shape=partialRectangle;connectable=0;fillColor=none;top=0;left=0;bottom=0;right=0;align=left;spacingLeft=6;overflow=hidden;whiteSpace=wrap;html=1;" parent="EbB1QgQNDdHdvBnAkDd7-276" vertex="1">
          <mxGeometry x="30" width="150" height="30" as="geometry">
            <mxRectangle width="150" height="30" as="alternateBounds" />
          </mxGeometry>
        </mxCell>
        <mxCell id="EbB1QgQNDdHdvBnAkDd7-279" value="" style="shape=tableRow;horizontal=0;startSize=0;swimlaneHead=0;swimlaneBody=0;fillColor=none;collapsible=0;dropTarget=0;points=[[0,0.5],[1,0.5]];portConstraint=eastwest;top=0;left=0;right=0;bottom=0;" parent="EbB1QgQNDdHdvBnAkDd7-266" vertex="1">
          <mxGeometry y="150" width="180" height="30" as="geometry" />
        </mxCell>
        <mxCell id="EbB1QgQNDdHdvBnAkDd7-280" value="" style="shape=partialRectangle;connectable=0;fillColor=none;top=0;left=0;bottom=0;right=0;editable=1;overflow=hidden;whiteSpace=wrap;html=1;" parent="EbB1QgQNDdHdvBnAkDd7-279" vertex="1">
          <mxGeometry width="30" height="30" as="geometry">
            <mxRectangle width="30" height="30" as="alternateBounds" />
          </mxGeometry>
        </mxCell>
        <mxCell id="EbB1QgQNDdHdvBnAkDd7-281" value="district" style="shape=partialRectangle;connectable=0;fillColor=none;top=0;left=0;bottom=0;right=0;align=left;spacingLeft=6;overflow=hidden;whiteSpace=wrap;html=1;" parent="EbB1QgQNDdHdvBnAkDd7-279" vertex="1">
          <mxGeometry x="30" width="150" height="30" as="geometry">
            <mxRectangle width="150" height="30" as="alternateBounds" />
          </mxGeometry>
        </mxCell>
        <mxCell id="cV4ObIlHQ5JctE5Yy0z0-3" value="" style="endArrow=none;dashed=1;html=1;rounded=0;entryX=0.5;entryY=0;entryDx=0;entryDy=0;" edge="1" parent="1" target="EbB1QgQNDdHdvBnAkDd7-79">
          <mxGeometry width="50" height="50" relative="1" as="geometry">
            <mxPoint x="470" y="530" as="sourcePoint" />
            <mxPoint x="920" y="790" as="targetPoint" />
          </mxGeometry>
        </mxCell>
        <mxCell id="cV4ObIlHQ5JctE5Yy0z0-4" value="line_num" style="rounded=0;whiteSpace=wrap;html=1;" vertex="1" parent="1">
          <mxGeometry x="437.5" y="491.25" width="65" height="37.75" as="geometry" />
        </mxCell>
        <mxCell id="cV4ObIlHQ5JctE5Yy0z0-6" value="" style="endArrow=none;dashed=1;html=1;rounded=0;exitX=0;exitY=0.5;exitDx=0;exitDy=0;entryX=1;entryY=0.5;entryDx=0;entryDy=0;" edge="1" parent="1" source="EbB1QgQNDdHdvBnAkDd7-191" target="cV4ObIlHQ5JctE5Yy0z0-7">
          <mxGeometry width="50" height="50" relative="1" as="geometry">
            <mxPoint x="987.5" y="850.34" as="sourcePoint" />
            <mxPoint x="1037.5" y="800.34" as="targetPoint" />
          </mxGeometry>
        </mxCell>
        <mxCell id="cV4ObIlHQ5JctE5Yy0z0-7" value="price&lt;div&gt;start_time&lt;/div&gt;&lt;div&gt;end_time&lt;/div&gt;" style="rounded=0;whiteSpace=wrap;html=1;" vertex="1" parent="1">
          <mxGeometry x="470" y="745.12" width="95" height="58.88" as="geometry" />
        </mxCell>
        <mxCell id="cV4ObIlHQ5JctE5Yy0z0-8" value="" style="endArrow=none;html=1;rounded=0;exitX=1;exitY=0;exitDx=0;exitDy=0;" edge="1" parent="1" source="EbB1QgQNDdHdvBnAkDd7-191">
          <mxGeometry relative="1" as="geometry">
            <mxPoint x="580" y="800" as="sourcePoint" />
            <mxPoint x="720" y="660" as="targetPoint" />
          </mxGeometry>
        </mxCell>
        <mxCell id="cV4ObIlHQ5JctE5Yy0z0-9" value="1...*" style="resizable=0;html=1;whiteSpace=wrap;align=right;verticalAlign=bottom;rotation=0;" connectable="0" vertex="1" parent="cV4ObIlHQ5JctE5Yy0z0-8">
          <mxGeometry x="1" relative="1" as="geometry">
            <mxPoint x="30" y="45" as="offset" />
          </mxGeometry>
        </mxCell>
        <mxCell id="cV4ObIlHQ5JctE5Yy0z0-10" value="start_station" style="text;html=1;align=center;verticalAlign=middle;whiteSpace=wrap;rounded=0;" vertex="1" parent="1">
          <mxGeometry x="590" y="701" width="60" height="30" as="geometry" />
        </mxCell>
        <mxCell id="cV4ObIlHQ5JctE5Yy0z0-11" value="end_station" style="text;html=1;align=center;verticalAlign=middle;whiteSpace=wrap;rounded=0;" vertex="1" parent="1">
          <mxGeometry x="729" y="701.63" width="60" height="30" as="geometry" />
        </mxCell>
        <mxCell id="cV4ObIlHQ5JctE5Yy0z0-16" value="" style="endArrow=none;dashed=1;html=1;rounded=0;exitX=1;exitY=0.5;exitDx=0;exitDy=0;entryX=0;entryY=0.5;entryDx=0;entryDy=0;" edge="1" parent="1" target="cV4ObIlHQ5JctE5Yy0z0-17" source="EbB1QgQNDdHdvBnAkDd7-224">
          <mxGeometry width="50" height="50" relative="1" as="geometry">
            <mxPoint x="969" y="365" as="sourcePoint" />
            <mxPoint x="1376.5" y="390.34000000000003" as="targetPoint" />
          </mxGeometry>
        </mxCell>
        <mxCell id="cV4ObIlHQ5JctE5Yy0z0-17" value="price&lt;div&gt;start_time&lt;/div&gt;&lt;div&gt;end_time&lt;/div&gt;" style="rounded=0;whiteSpace=wrap;html=1;" vertex="1" parent="1">
          <mxGeometry x="809" y="335.12" width="95" height="58.88" as="geometry" />
        </mxCell>
        <mxCell id="cV4ObIlHQ5JctE5Yy0z0-20" value="" style="resizable=0;html=1;whiteSpace=wrap;align=right;verticalAlign=bottom;rotation=0;" connectable="0" vertex="1" parent="1">
          <mxGeometry x="735" y="735.6266666666669" as="geometry">
            <mxPoint x="-27" y="-437" as="offset" />
          </mxGeometry>
        </mxCell>
        <mxCell id="cV4ObIlHQ5JctE5Yy0z0-21" value="" style="endArrow=none;html=1;rounded=0;exitX=0;exitY=0;exitDx=0;exitDy=0;entryX=0;entryY=1;entryDx=0;entryDy=0;" edge="1" parent="1" target="EbB1QgQNDdHdvBnAkDd7-224">
          <mxGeometry relative="1" as="geometry">
            <mxPoint x="649.5" y="480" as="sourcePoint" />
            <mxPoint x="650" y="380" as="targetPoint" />
          </mxGeometry>
        </mxCell>
        <mxCell id="cV4ObIlHQ5JctE5Yy0z0-22" value="1...*" style="resizable=0;html=1;whiteSpace=wrap;align=right;verticalAlign=bottom;rotation=0;" connectable="0" vertex="1" parent="cV4ObIlHQ5JctE5Yy0z0-21">
          <mxGeometry x="1" relative="1" as="geometry">
            <mxPoint x="-7" y="48" as="offset" />
          </mxGeometry>
        </mxCell>
        <mxCell id="cV4ObIlHQ5JctE5Yy0z0-23" value="" style="endArrow=none;html=1;rounded=0;exitX=1;exitY=0;exitDx=0;exitDy=0;entryX=1;entryY=1;entryDx=0;entryDy=0;" edge="1" parent="1" target="EbB1QgQNDdHdvBnAkDd7-224">
          <mxGeometry relative="1" as="geometry">
            <mxPoint x="709.5" y="480" as="sourcePoint" />
            <mxPoint x="709.5" y="380" as="targetPoint" />
          </mxGeometry>
        </mxCell>
        <mxCell id="cV4ObIlHQ5JctE5Yy0z0-24" value="1...*" style="resizable=0;html=1;whiteSpace=wrap;align=right;verticalAlign=bottom;rotation=0;" connectable="0" vertex="1" parent="cV4ObIlHQ5JctE5Yy0z0-23">
          <mxGeometry x="1" relative="1" as="geometry">
            <mxPoint x="30" y="49" as="offset" />
          </mxGeometry>
        </mxCell>
        <mxCell id="cV4ObIlHQ5JctE5Yy0z0-25" value="start_station" style="text;html=1;align=center;verticalAlign=middle;whiteSpace=wrap;rounded=0;" vertex="1" parent="1">
          <mxGeometry x="579.5" y="425" width="60" height="30" as="geometry" />
        </mxCell>
        <mxCell id="cV4ObIlHQ5JctE5Yy0z0-26" value="end_station" style="text;html=1;align=center;verticalAlign=middle;whiteSpace=wrap;rounded=0;" vertex="1" parent="1">
          <mxGeometry x="718.5" y="425.63" width="60" height="30" as="geometry" />
        </mxCell>
      </root>
    </mxGraphModel>
  </diagram>
</mxfile>
